<svg viewBox="0 0 923 1000" xmlns="http://www.w3.org/2000/svg"><path d="M452.13 999.79l-7.628-.208-18.932-.665-1.622-1.469-1.623-1.469-2.268-22.482-1.135-43-1.135-43-.804-17-.803-17-1.1-32.5-1.101-32.5-3.11-54-.885-16.5-.886-16.5-.048-39.25-.048-39.25h5.69l1.19 8.75 1.19 8.75 2.504 19 2.503 19 2.405 19 2.405 19 2.526 20 2.527 20 5.008 37 1.487 12.5 1.488 12.5 5.15 49 2.838 16 3.118 23 2.032 11 4.124 37 .893 8 .893 8 1.592 13.304 1.592 13.304-1.2 1.446-1.2 1.446zm45.872-1.214l-3.5.582-4.248-4.66-4.316-34-5.022-36-3.846-32-2.125-12-4.083-25-4.688-37-4.15-31-.57-2-.569-2-4.823-35-2.457-17.5-2.458-17.5-.548-1.5-.549-1.5-4.144-32-1.962-16.5-1.962-16.5-1.99-10.592-1.99-10.592v-5.278l4.996-1.254 2.74 1.052.529 2.332.53 2.332 4.016 18 4.017 18 2.343 10 4.47 19 1.21 3 4.132 19 5.063 21 5.136 22 2.469 11 2.468 11 3.725 17 2.586 11.5 2.585 11.5 2.826 10 4.385 15 3.656 19 4.99 23 5.131 23 2.488 12 2.487 12 2.407 11 2.406 11 2.73 11.5 2.728 11.5 1.801 9.5 1.801 9.5-.675.631-.676.632-28 3.232zm-107.62-4.699l-5.88-.12-9-1.89-18.467-4.005-.49-.794-.49-.793 1.948-39.889 1.947-39.889 2.026-21 3.157-42 .901-6.5.901-6.5 1.057-18.5 1.057-18.5 1.718-44 4.191-41 2.051-18 1.487-28.5 1.488-28.5 1.217-11 .423-.69.422-.69 5.665 1.975 1.295 33.405 1.996 114 1.006 39 1.007 39 .97 44.5.97 44.5.654 28.25.654 28.25zm172.13-5.88h-.2l-3.112-3.5-11.265-46-1.028-4-1.027-4-4.932-21-3.874-17-5.85-23-5.736-21-5.736-21-1.94-8-1.938-8-3.8-17-6.226-24-4.994-19-4.854-20-3.925-17-16.274-64-4.794-18-4.037-17.57 2.103-3.93h2.785l3.894 4.952 11.496 34.548 24.472 69 9.431 29 31.705 89 9.37 27 2.947 10.485 2.948 10.485 7.828 23.03 10.792 31 1.207 3 11.056 33.34v2.75l-16.5 4.263-19.79 5.147zm-231.85-8.016l-2.162-.016-31.835-10.874-2.957-2.957 2.364-10.637 5.057-27 4.694-27 2.477-13 2.477-13 7.256-40 7.92-47 5.195-27 4.639-25 2.203-11 1.477-12.5 1.477-12.5 5.102-25 3.89-29 1.46-5.5 1.461-5.5 2.351-12 1.551-1.75 1.551-1.75h3.759l-.548 4.75-.548 4.75-3.037 47-.984 8-.985 8-1.986 25.5-1.986 25.5-.514 7.5-.514 7.5-1.535 27-1.535 27-.404 3.5-.404 3.5-2.035 30-2.034 30-2.016 15-3.065 44-.922 4.5-.922 4.5-1.09 12.5-1.091 12.5-1.09 7.5zm295.27-10.578l-1.563.665-1.641-1.813-1.641-1.813-10.303-28.944-9.598-28-10.336-29-4.72-13-4.847-13-7.14-20-12.252-38-9.929-28-1.882-4-10.818-28-6.444-20-15.749-47-10.132-30-1.802-4-10.142-30.238v-3.325l1.508-.579 1.508-.579 5.043 3.305 8.09 17.416 1.394 3 1.395 3 6.281 15 2.615 6 23.437 52 1.448 2 9.11 20 3.47 7.5 3.472 7.5 16.384 37 5.652 12 3.505 7.5 3.505 7.5 10.363 22 3.623 9 21.021 46 16.297 35 3.756 8 8.374 19 5.766 13.816-.74.74-19.777 8.207-14 5.477zm-357.15-12.862l-.436.436-18.853-9.902-15.423-7.578 1.06-3 6.15-22 4.876-17 4.837-17.5 4.92-17.5 5.234-18 1.47-5.5 1.468-5.5 3.734-13 5.14-18 8.25-29 4.911-18 4.776-17 5.167-18 2.4-8.5 2.4-8.5 4.233-16 2.772-8 6.27-23 10.026-36 1.483-5 5.09-.608.621 1.617.62 1.616-3.989 25.375-2.058 9-1.926 12-1.926 12-2.46 13.5-2.46 13.5-7.05 37-3.253 18-4.842 27-5.01 26-5.01 24.5-4.977 24.5-4.974 27-5.121 28-4.942 28-1.38 6.304-1.382 6.304zm417.41-16.544h-2.118l-2.542-4.337-2.542-4.338v-1.347l-10-21.15v-1.092l-13.034-28.77-3.872-8.233-3.873-8.232-11.982-25-15.469-32-10.014-21-4.45-10-13.59-29-7.958-17-8.993-19-11.018-23-9.475-20-6.455-14-2.313-5-2.313-5-6.358-14-18.193-37.57 3.397-3.396 3.42 2.157 12.8 21.809 15.418 26 14.589 25 11.034 19 9.446 16 10.479 18 4.46 7 24.046 39 9.956 17 17.386 30 11.429 18.424 17.235 27.576 12.036 20 24.228 39.926v5.255l-32.68 20.319zm-476.79-16.388l-.91.219-21.073-15.331-5.61-4.432 1.725-5.284 1.724-5.284 1.49-2 1.469-5 10.91-28 5.971-15 .916-2 .916-2 1.903-5 1.903-5 10.013-24 10.4-25 16.967-43 11.639-27 5.343-14 .88-2 .88-2 13.22-34 7.619-18 2.632-7 2.084-2.71.078-6.006.079-6.006 5.423-2.842 2.869-6.865 5.278-1.325 1.8 1.801-8.987 28.953-5.132 17-3.644 11-6.428 21-4.678 15-14.188 46-6.065 20-3.642 11-3.183 10.5-3.183 10.5-3.642 11-6.075 20-19.154 62-6.12 20-3.507 9.894zm534.18-21.612h-.552l-16.753-25.5-17.953-29-24.629-40-55.99-90-8.707-13.435v-1.107l-4.76-7.457-23.74-39.692-4-6.457-21.871-34.851-15.935-27-5.694-8.36v-2.82l5.094-2.32h.73l15.608 21.5 30.182 40 43.064 57 27.658 38 8.164 10.396 11 14.484 11.676 15.119 22.546 30 47.607 65 6.863 9.753-1.692 3.534-27.364 23.213zm-583.86-16.028l-.225-.028-9.106-8.443-15.394-13.864v-4.73l12.265-23.407 8.45-16 25.056-49 21.94-43 17.511-33 3.53-6 9.98-19 17.03-33 14.672-28 6.601-13.5h3.096l1.934 1.036 1.935 1.035v1.962l-10.061 24.467-3.845 9-6.189 15-1.928 4.5-1.927 4.5-12.163 30-5.062 12-2.662 6-3.921 10-7.234 17.591-4.009 8.799v1.131l-3.892 8.479-9.334 23-2.288 5.5-2.288 5.5-10.435 25-4.762 11.5-4.774 11.5-4.667 11.5-4.667 11.5-1.946 4.239-1.947 4.239v1.551l-1.86 3.485-1.86 3.486-1.518 5-3.811 8.5zm633.51-28.972h-1.07l-23.782-29.5-23.963-31-30.046-40-6.887-9-20.989-26.767-8-10.373-41.89-54.86-23.513-30.208-14.597-18.14-13-16.53-20.5-27.03v-4.591h7.528l9.865 10.5 40.107 42.098 27.839 30.902 25.16 26.746 7 7.49 17 15.612 5.938 8.152 19.95 22 22.113 23.901 42 45.127 22 23.972 1 1 7.5 8.506v2.962l-17.784 20.533-7.909 8.5zm-677.24-16.058l-.5-.016-22.5-27.126v-3.365l10.747-12.947 19.572-27.988 44.401-67 39.896-58 15.729-23 18.951-28 6.873-9.5h3.893l1.126 2.934-9.905 18.566-15.487 29-9.007 17-27.539 50-19.622 36-11.302 19-18.026 33-20.766 39-3.017 6.23-3.018 6.229zm568-1.941h-1v-2h2v2zm154.98-36.694l-.69.808-11.522-10.531-54.095-57.084-18.252-19-41.76-44-63.393-64-47.21-49.648-15.217-16.761.68-3.59 5.355-.621 22.63 19.556 5 4.394 59 50.548 33 29.247 74 61.745 30 26.307 44 36.654.314.78.315.779-2.433 4.61-19.03 29zm-761.09-11.307h-.841l-2.816-4.5-14.23-24.26v-1.985l11.27-13.754 12.311-14 28.006-32 29.912-34.853 23.067-27.147 41.647-50 16.006-19 6.705-3.51 2.202 4.117-2.513 4.196-2.513 4.197-20.036 29-10.895 16-13.8 20-8.953 13-15.918 22.753-10 14.378-17 24.46-20.81 29.408-24.216 35-5.746 8.5zm-28.931-51.633l-.79.868-5.166-11.294v-1.07l-5.232-11.371-1.023-7.433 14.754-14.24 28-26.45 39-36.16 11-11.432 51-47.59 22.967-23.196h5.533v5.902l-22.523 25.598-20.616 24-9.36 10.952-22.012 24.048-35.849 42-10.08 12-26.144 29-12.67 15zm825.54.25l-1 .252-39-32.017-30.828-25.352-21.172-17.915-31-27.173-38-31.829-20.126-17.083-24.733-21-6.386-5-46.645-38-7.94-7.197.634-1.652.633-1.65h6.3l29.092 20.5 15.17 10.626 23 15.981 26.399 18.392 37.602 25.312 31 22.124 24 17.636 22 15.83 25 16.822 40.5 28.186v6.186l-10 20.905-1.75 3.433-1.75 3.432zm-847.47-52.617h-1.09l-.87-2.5-6.19-19.593.624-5.304 10.116-8.102 44.619-36 52.507-42 30.623-24 25.959-21.5h3.43l1.317 1.586 1.316 1.586-19.888 19.272-30 29.016-29.017 28.04-25.983 24.948-26 25.071-30.384 29.481zm873.3-8.366l-.823 2.134-43-28.97-87-58.472-34-22.983-82-55.1-30.5-20.568v-1.675l4.102-4.102 4.398 1.319 21 12.055 20 11.435 56 31.04 18 9.54 40 21.99 58 32.454 30 15.555 20 10.95 13.37 7.777 1.207 3.806-7.931 29.682zm-887.07-44.255l-1.252.742-1.752-4.62-3.325-21.23L9.1 604.49l42.937-26.992 59.686-36 29.582-20 5.297-5.253 6.145-1.35 15.645-9.88 4.637 4.356-1.527 1.325-51 39.892-59.625 46.91-5.47 4-40.904 32.137zm900.98-17.457l-.724-.079-3-1.125-46-25.402-34-17.585-25-13.051-17-9.397-24-12.991-11-6.008-45-24.95-37.77-19.538-20.08-12.06-10.38-4.591-.635-1.654-.635-1.654v-1.837h6.888l17.612 7.223 11.5 4.777 12 5 11.5 4.772 10 4.358 4 1.782 28 12.237 22 9.567 13 5.542 8.39 3.743h1.132l8.478 3.822 18 7.46 20 8.512 25 10.438 10 4.532 15 6.334 8 3.718 29 12.38.782.733.78.733-1.156 14.419-1.156 14.419-1.4 2.75-1.401 2.75zm-510.47-19.895l-10.747 3.852-1.738-3.378-9.554-28-1.433-2-2.258-6.5-2.258-6.5-3.659-10-7.195-19-12.755-35-6.33-17-1.932-5.5-1.931-5.5-1.481-3.151-1.481-3.151v-1.357l-5.237-13.341-4.795-12.487-10-26-2.4-6.256-2.4-6.257-7.49-20-3.384-9-3.384-9-7.941-22-1.71-4-8.65-18-14.109-14.188-19-9.305-19.396-3.35-21.604 3.488-36 12.126-2 1.464-11 3.53-2 1.474-8 2.513-9 4.073-7.876.175-6.766-16-1.436-4-1.436-4-1.97-4-4.473-12.5-4.473-12.5L99.19 225.1l-1.249-5.687 7.568-3.302 14-5.21 48-17.112 25-8.652 20-6.06 13-2.064 12 .02 13.036 2.764 19.629 6.509 11.334 7.332 9.757 10.86 7.009 10.954 3.88 9.045 16.977 48 26.778 75 12.225 33 8.091 22 5.5 15 9.298 26 1.953 4 3.913 11 3.913 11 11.402 29 15.088 42 1.858 5.5 1.858 5.5 1.964 4 10.153 28 .382 2.733-19 6.942zm48.018-16.033l-1.73.007-4.04-7.919-13.184-37.581-3.62-10-11.48-33-2.679-6-1.87-5.5-1.87-5.5-19.593-54-5.452-15-15.539-43-4.557-13-3.167-8.5-3.168-8.5-1.347-4-1.346-4-2.937-8-2.938-8-6.626-18.43-6.627-18.43-.006-1.07-.006-1.07-1.408-2.7-1.408-2.699-1.68-5.8-1.68-5.802-1.608-2-3.106-10-5.227-14-8.522-18-14.849-26-3-5.91-11.562-12.41-14.72-11.107-14.719-11.106-26.345-12.968H226.9l-8.676-3.952-17.714-3.18-18-2.832-22.118-.036-3.428-2.506-.583-3.594-.583-3.593 8.711-3.01 71-25.602 15-5.395 82-29.608 13-4.553 17-6.242 9-2.894 4-1.973 42.687-15.176.187.323.186.323 1.944 4 1.944 4 .662 1.33-9.41 6.473-13.814 11.89-11.072 13.307-8.058 12-9.484 18-7.457 19-1.882 5-1.882 5-5.477 20 .016 46 5.467 22 7.688 22 8.975 25.24.518.88.517.88 3.434 12 .765 1 .766 1 4.162 12 5.376 14 4.854 13 4.72 14 10.304 29 4.602 14 14.28 40 1.98 4 1.93 5.5 1.929 5.5 5.36 14 18.87 56 1.898 4 2.886 8 6.337 15 16.6 49 .346 1.844.345 1.844-36 12.799zm-446.18-2.388l-1.434.55-2.153-4.024v-18.686l3.152-4.5 24.348-11.72 35.599-17.208 18.4-8.797 23-11.188 26.088-13.531 20.183-9.526 1.537.59 1.538.59.524 1.367.525 1.367-33.394 21.27-42 26.539-54 33.608-20.48 12.749zm504.42-17.605h-1.055l-.855-2.25-.855-2.25-16.501-46-4.464-12-10.43-29-4.452-13.5-4.453-13.5-1.742-4-14.442-41-5.894-16-3.963-11-5-14-4.706-14-9.187-26-2.005-4-1.864-5.5-1.864-5.5-10.178-28-10.217-27-4.758-13-10.324-27-5.022-16-1.984-10 .988-21 4.878-12.004 12.843-20.205 6.215-7.036 11.093-9.036 12.692-6.073 10-4.29 18-7.001 21-8.13 12-4.61 28-10.2 20.62-6.745 1.79 4.33 4.895 13 2.455 8 1.55 2 3.47 11.976 1.76 3.024 4.027 12 5.994 18 5.993 18-.555 4-15 5.082-25 8.532-4 1.82-23 8.304-15.48 7.684-10.52 7.871-9.272 9.707-5.241 8.481-5.97 15.03-2.193 14.134 1.047 7.678 1.048 7.677 6.922 21 10.339 29 14.948 43 9.735 29 9.288 27 2.67 6 2.375 9 1.616 2 3.43 12 1.418 2 12.528 36 3.611 10 10.46 30 3.006 8 3.007 8 4.94 12.872-3.23 2.363-24.482 8.543-11.44 4.722zm412.24-7.068l-.75-.068-4-1.774-61-24.302-22-8.788-4-1.986-8-2.886-14-5.925-15-6.271-58-23.029-4-1.792-35-13.877-36-14.46-9.25-4.681-1.25-3.256v-2.837h5.025l14.475 4.17 17 5.056 17 4.75 5 1.867 21 6.095 24 7.251 16 4.901 14 3.957 4 1.845 14 4.004 16.484 5.158 16.516 5.153 16 4.906 16 4.707 28 8.333 25.077 7.873 1.712 1.998 1.71 2v31.976zM3.109 524.998H2.013V507.38l1.25-1.698 1.25-1.698 45-16.282 19-6.77 7-2.125 6-2.566 57.64-20.363 3.36.647v2.404l-9 5.622-26 13.257-76 34.354-8 3.667-14 6.247-5.309 2.922zm916.1-34.858l-.692.642-9-2.793-18-5.095-17-4.816-18-5.242-17-4.704-17-4.89-18-5.053-38.315-11.096-14.685-4-15-4.203-4-1.828-15-3.922-21-6.316-16-4.742-22.547-6.422-.597-2.377-.596-2.378 1.303-1.303 13.437 2.4 27 4.936 27 5.117 26 4.974 25 5.104 26 4.959 27 4.862 26 4.92 29 6.242 22 3.973 6.414 1.157 2.737 3.252 2.403 13 1.83 15zM5.769 476.987l-.75.011v-9.544l6.124-7.43 17.376-5.184 16-4.682 22-6.374 17-4.933 12-3.734 7.37-1.317 3.44-3.802h3.19l21.528-5.4 3.38 3.378-3.908 5.225-51 17.96-7 2.642-38 13.49-19 6.81-9 2.873zm13-46.422l-3.75.656v-8.322l1.571-3.038 1.571-3.038 8.766-3.878 21.092-2.947 21.5-3.081 35-4.881 13-1.997 9.286-.04 1.175 3.06-4.46 1.773-88 21.39-13 3.687zm890.08-1.774l-.332.785-8-1.56-29.5-5.018-30.5-5.163-29-4.914-30-5.004-24-3.85-5-1.274-30-4.88-28-4.728-30.746-5.032-1.924-1.924.335-2.365.335-2.366 6 .27 62 4.176 19 2.165 57 3.873 24 2.954 34 2.136 35.637 2.53.916 1.448.916 1.448 1.53 5.5 1.53 5.5 4.135 14.508zm-876.08-41.86l-5.75.068v-4.969l5.834-6.531 89.166-.597v1.852l-1.27 1.054-1.27 1.055-42.96 4.323-38 3.675zm858.4-12.643l-.654.289-17-1.382-43-3.085-28-1.199-20-1.872-57.62-3.113-27.38-2.96-33.5-1.28v-4.819l1.022-1.91 1.023-1.91 152.46-.034 61.532-1.333 4.864 4.57 1.358 6.183 1.722 3.066 3.832 10.5zM79.409 351H40.115l3.097-7.5 3.11-3.5 12.19.103 14 1.825 48.952 4.19.87.87-1.816 2.006-1.815 2.006zm617.06-22.279l-31.043.484-2.639-3.18 1.173-3.055 4.551-1.71 24-2.354 11-2.007 40-4.966 35-3.824 10-2.117 35-4.151 24-2.833 7.06-1.176 4.94 4.959 9.892 20.15-1.095 1.095-99.797 1.987-41 2.215zm-581.46-8.07l-7.5.15-29-2.818-19.515-1.665-.408-.41-.408-.408 2.706-6.43 5.565-1.397 33.06 4.525 21 2.865 2.64.928-.32 2.254-.32 2.255zm553.5-24.268l-7 .596-3.646-2.16 3.42-3.78 7.226-1.242 15.555-3.854 18.445-3.92 21-4.82 23-5.419 23-4.838 24-5.105 24-4.83 8.492-1.282 8.508 8.934 4.379 7.293-.76.47-.76.47-19.86 3.172-23 3.856-43 5.166-21 2.97-32 4.93-23 2.797zm-13.708-22.874l-1.708.673-.65-2.589-.65-2.588.498-1.297.498-1.297 27.72-9.354 29-10.261 28-9.625 29-10.218 26.83-9.103 13.11 13.11-1.94 1.898-19 4.985-23 6.337-10 2.6-23 6.385-18 4.737-18 4.964-19 5.266-18 4.704zm-9.84-30.074l-1.548.624-4.66-4.96 8.756-4.018 28-12.181 6-2.794L692.885 215h1.248l10.376-4.763 23-10.067L755.042 188h6.066l5.4 2.83 6.864 7.14-.432.338-.432.338-33 11.446-10 3.879-11 3.24-1.777 1.078-28.223 9.892-42 14.63zM632.261 219h-1.852l-2.4-2.4v-2.217l28.5-17.078 34-20.625 18-10.314 13.667-7.557 6.46 1.212 6.873 7.12-3.76 2.77-70.24 35.823L634.112 219zm-15.853-24.323l-1.245.478-2.154-4.023v-1.746l13.5-9.843 54.987-41.042 4.013-2.29 10.5 3.93-.054 1.68-.055 1.68-20.39 12.95-34 22.199-23.856 15.55zM598.483 172h-1.229l-1.152-1.388-1.152-1.388 4.992-5.933 32.507-28.79 16.197-15.5 3.432.013 3.432.013 4.5 1.206v3.863l-5.092 4.718-48.045 37.686-7.16 5.5zm-20.407-20h-.996l-1.124-2.1-1.123-2.1 4.677-6.567 34-36.478 3.981-1.477 5.884 1.687 1.794 1.794-19.659 18.695-26.438 26.545z" fill="#8e63a8"/></svg>