<?xml version="1.0" encoding="UTF-8" standalone="no"?>
<!-- Created with Inkscape (http://www.inkscape.org/) -->

<svg
   version="1.1"
   id="svg1"
   width="923"
   height="1000"
   viewBox="0 0 923 1000"
   xmlns="http://www.w3.org/2000/svg"
   xmlns:svg="http://www.w3.org/2000/svg">
  <defs
     id="defs1" />
  <g
     id="g1">
    <path
       style="fill:#8e63a8;fill-opacity:1"
       d="m 452.12756,999.79246 -7.62756,-0.20754 -9.46588,-0.33284 -9.46588,-0.33285 -1.62286,-1.46866 -1.62286,-1.46867 -1.13354,-11.24095 -1.13354,-11.24095 -1.13546,-43 -1.13545,-43 -0.8033,-17 -0.80329,-17 -1.10063,-32.5 -1.10062,-32.5 -1.55452,-27 -1.55452,-27 L 409.98168,718 409.0957,701.5 409.0478,662.25 409,623 h 2.84449 2.84449 l 1.19056,8.75 1.19057,8.75 2.50315,19 2.50314,19 2.40502,19 2.40501,19 2.52655,20 2.52654,20 2.50403,18.5 2.50403,18.5 1.48751,12.5 1.48752,12.5 2.57512,24.5 2.57512,24.5 1.4191,8 1.4191,8 1.55909,11.5 1.55909,11.5 1.01602,5.5 1.01602,5.5 2.062,18.5 2.062,18.5 0.89293,8 0.89292,8 1.59197,13.30412 1.59198,13.30411 -1.19998,1.44589 -1.19998,1.44588 z m 45.87215,-1.21454 -3.50029,0.58259 -2.12398,-2.33026 -2.12398,-2.33025 -2.15785,-17 -2.15785,-17 -2.51105,-18 -2.51105,-18 -1.92289,-16 -1.9229,-16 -1.06236,-6 -1.06236,-6 -2.04176,-12.5 -2.04177,-12.5 -2.34396,-18.5 -2.34396,-18.5 -2.07464,-15.5 -2.07465,-15.5 -0.56983,-2 -0.56984,-2 -2.41163,-17.5 -2.41163,-17.5 -2.45719,-17.5 -2.45718,-17.5 -0.54867,-1.5 -0.54866,-1.5 -2.07219,-16 -2.07219,-16 -1.96167,-16.5 -1.96166,-16.5 -1.99004,-10.59215 L 438,624.3157 v -2.6388 -2.6388 l 2.49776,-0.62689 2.49777,-0.6269 1.36995,0.5257 1.36996,0.5257 0.52924,2.33214 0.52923,2.33215 4.01698,18 4.01697,18 1.17161,5 1.17161,5 2.23439,9.5 2.23439,9.5 0.6055,1.5 0.6055,1.5 2.06612,9.5 2.06613,9.5 2.53124,10.5 2.53125,10.5 2.5681,11 2.5681,11 2.46855,11 2.46854,11 1.86265,8.5 1.86265,8.5 2.58515,11.5 2.58514,11.5 1.41302,5 1.41303,5 2.19262,7.5 2.19262,7.5 1.82823,9.5 1.82823,9.5 2.49439,11.5 2.49439,11.5 2.56608,11.5 2.56609,11.5 2.48719,12 2.48718,12 2.40684,11 2.40683,11 2.72876,11.5 2.72875,11.5 1.80099,9.5 1.80098,9.5 -0.67535,0.63139 -0.67535,0.63138 -14,1.61629 -14,1.61628 z M 390.38066,993.87991 384.5,993.75982 380,992.8147 l -4.5,-0.94512 -9.23305,-2.00285 -9.23304,-2.00285 -0.49012,-0.79302 -0.49011,-0.79303 1.94771,-39.88891 1.94772,-39.88892 1.01283,-10.5 1.01283,-10.5 1.57838,-21 1.57838,-21 0.90123,-6.5 0.90124,-6.5 1.05669,-18.5 1.0567,-18.5 0.85909,-22 0.85909,-22 2.09572,-20.5 2.09572,-20.5 1.02533,-9 1.02533,-9 1.48729,-28.5 1.4873,-28.5 0.6088,-5.5 0.6088,-5.5 0.42217,-0.69027 0.42218,-0.69028 2.83291,0.98756 2.83291,0.98755 0.64739,16.70272 0.64739,16.70272 0.99765,57 0.99765,57 1.00666,39 1.00667,39 0.96996,44.5 0.96997,44.5 0.65398,28.25 0.65397,28.25 z M 562.50978,988 h -0.1998 l -1.55619,-1.75 -1.55619,-1.75 -5.63272,-23 -5.63272,-23 -1.02762,-4 -1.02761,-4 -2.46598,-10.5 -2.46598,-10.5 -1.93702,-8.5 -1.93703,-8.5 -2.92506,-11.5 -2.92507,-11.5 -5.73587,-21 -5.73586,-21 -1.93899,-8 -1.93898,-8 -1.90008,-8.5 -1.90009,-8.5 -3.11273,-12 -3.11274,-12 -2.49718,-9.5 -2.49718,-9.5 -2.42667,-10 -2.42667,-10 -1.96271,-8.5 -1.96272,-8.5 -8.13708,-32 -8.13707,-32 -2.39717,-9 -2.39717,-9 -2.01823,-8.78525 -2.01823,-8.78526 1.0515,-1.96474 1.0515,-1.96475 h 1.39223 1.39224 l 1.94746,2.4758 1.94746,2.47579 5.74786,17.27421 5.74786,17.2742 12.23578,34.5 12.23579,34.5 4.71536,14.5 4.71536,14.5 15.85274,44.5 15.85274,44.5 4.68492,13.5 4.68492,13.5 2.94749,10.48506 2.94748,10.48505 3.91383,11.51495 3.91384,11.51494 5.39584,15.5 5.39584,15.5 0.60343,1.5 0.60343,1.5 5.52786,16.67042 L 599,975.84083 v 1.37498 1.37498 l -8.25,2.13123 -8.25,2.13122 -9.89521,2.57338 L 562.70958,988 Z m -231.84768,-8.01619 -2.1621,-0.0162 -15.91755,-5.43707 -15.91754,-5.43707 -1.47847,-1.47847 -1.47846,-1.47846 1.18181,-5.31827 1.18181,-5.31828 2.52852,-13.5 2.52851,-13.5 2.34743,-13.5 2.34742,-13.5 2.47669,-13 2.4767,-13 3.62802,-20 3.62802,-20 3.9597,-23.5 3.95969,-23.5 2.59812,-13.5 2.59811,-13.5 2.31927,-12.5 2.31927,-12.5 1.10148,-5.5 1.10147,-5.5 1.47715,-12.5 1.47716,-12.5 2.55108,-12.5 2.55108,-12.5 1.9447,-14.5 1.9447,-14.5 1.46057,-5.5 1.46058,-5.5 1.1755,-6 1.17549,-6 1.55097,-1.75 1.55098,-1.75 h 1.87945 1.87946 l -0.54781,4.75 -0.5478,4.75 -1.51884,23.5 -1.51884,23.5 -0.98414,8 -0.98413,8 -1.98631,25.5 -1.9863,25.5 -0.51403,7.5 -0.51404,7.5 -1.5348,27 -1.53481,27 -0.40408,3.5 -0.40409,3.5 -2.03464,30 -2.03465,30 -1.00789,7.5 -1.00789,7.5 -1.53227,22 -1.53227,22 -0.92222,4.5 -0.92221,4.5 -1.09072,12.5 -1.09073,12.5 -0.54459,3.75 -0.54459,3.75 z m 295.2748,-10.57819 -1.56309,0.66491 -1.64104,-1.81332 -1.64103,-1.81332 -5.15149,-14.47194 -5.15149,-14.47195 -4.79917,-14 -4.79917,-14 -5.16791,-14.5 -5.16791,-14.5 -2.3594,-6.5 -2.3594,-6.5 -2.42373,-6.5 -2.42373,-6.5 -3.56968,-10 -3.56969,-10 -6.12648,-19 -6.12648,-19 -4.96427,-14 -4.96427,-14 -0.94117,-2 -0.94117,-2 -5.40883,-14 -5.40884,-14 -3.22188,-10 -3.22188,-10 -7.8743,-23.5 -7.8743,-23.5 -5.06578,-15 -5.06578,-15 -0.90092,-2 -0.90092,-2 -5.07085,-15.11882 L 495,605.26236 v -1.66257 -1.66256 l 1.50772,-0.57857 1.50772,-0.57856 2.52153,1.65217 2.52154,1.65217 4.0449,8.70778 4.0449,8.70778 1.39461,3 1.3946,3 3.14054,7.5 3.14054,7.5 1.30731,3 1.30732,3 11.71833,26 11.71833,26 0.72422,1 0.72422,1 4.55463,10 4.55464,10 3.47133,7.5 3.47132,7.5 8.19223,18.5 8.19222,18.5 2.82612,6 2.82613,6 3.50466,7.5 3.50465,7.5 5.18143,11 5.18144,11 1.81199,4.5 1.81199,4.5 10.51056,23 10.51056,23 8.14848,17.5 8.14848,17.5 1.87787,4 1.87787,4 4.18692,9.5 4.18693,9.5 2.88311,6.90816 2.88312,6.90816 -0.37051,0.37051 -0.3705,0.37051 -9.888,4.10292 -9.888,4.10293 -7,2.73876 -7,2.73875 z m -357.14754,-12.86165 -0.43603,0.43604 -9.42667,-4.95126 -9.42666,-4.95125 -7.71172,-3.78875 -7.71172,-3.78875 0.53038,-1.5 0.53038,-1.5 3.07475,-11 3.07474,-11 2.43766,-8.5 2.43765,-8.5 2.41894,-8.75 L 251,880 l 2.46013,-8.75 2.46012,-8.75 2.6166,-9 2.61659,-9 1.46923,-5.5 1.46924,-5.5 1.86697,-6.5 1.86697,-6.5 2.56955,-9 2.56955,-9 4.12501,-14.5 4.12501,-14.5 2.45613,-9 2.45612,-9 2.38765,-8.5 2.38765,-8.5 2.58381,-9 2.58381,-9 2.39963,-8.5 2.39964,-8.5 2.11679,-8 2.11679,-8 1.38583,-4 1.38582,-4 3.13506,-11.5 3.13506,-11.5 5.01292,-18 5.01292,-18 0.74182,-2.5 0.74182,-2.5 2.54513,-0.3041 2.54514,-0.30409 0.62036,1.61665 0.62037,1.61664 -1.99475,12.68745 -1.99474,12.68745 -1.02911,4.5 -1.02911,4.5 -1.92606,12 -1.92607,12 -2.45992,13.5 -2.45993,13.5 -3.52456,18.5 -3.52455,18.5 -1.62659,9 -1.62659,9 -2.42143,13.5 -2.42143,13.5 -2.50464,13 -2.50464,13 -2.50556,12.25 L 292,836 l -2.4882,12.25 -2.48819,12.25 -2.48684,13.5 -2.48683,13.5 -2.56058,14 -2.56058,14 -2.47088,14 -2.47088,14 -1.38081,6.30397 -1.38082,6.30397 z M 686.20217,940 h -2.11786 L 681.54215,935.66214 679,931.32428 v -0.67347 -0.67348 l -5,-10.57467 -5,-10.57468 v -0.54633 -0.54634 l -6.51714,-14.38503 -6.51714,-14.38503 -3.87225,-8.23262 -3.87224,-8.23263 -5.99118,-12.5 -5.99119,-12.5 -7.73427,-16 -7.73427,-16 -5.00675,-10.5 -5.00676,-10.5 -2.22481,-5 -2.22481,-5 -6.795,-14.5 -6.79501,-14.5 -3.97922,-8.5 -3.97922,-8.5 -4.49678,-9.5 -4.49679,-9.5 -5.50893,-11.5 -5.50893,-11.5 -4.73728,-10 -4.73727,-10 -3.22749,-7 -3.22749,-7 -2.31285,-5 -2.31284,-5 -3.17915,-7 -3.17915,-7 -9.09653,-18.78465 -9.09652,-18.78466 1.69839,-1.69839 1.6984,-1.6984 1.70987,1.07856 1.70988,1.07856 6.39984,10.90449 6.39984,10.90449 7.70886,13 7.70885,13 7.29432,12.5 7.29433,12.5 5.51714,9.5 5.51715,9.5 4.72308,8 4.72308,8 5.23955,9 5.23956,9 2.22992,3.5 2.22993,3.5 12.02308,19.5 12.02308,19.5 4.97804,8.5 4.97804,8.5 8.69294,15 8.69294,15 5.71457,9.21222 5.71458,9.21221 8.61763,13.78779 8.61763,13.78778 6.01815,10 6.01814,10 12.11423,19.96305 L 721,914.42611 v 2.62739 2.62739 L 704.66001,929.84044 688.32003,940 Z M 209.40925,923.6123 208.5,923.83077 197.96297,916.16539 187.42593,908.5 l -2.80462,-2.21602 -2.80462,-2.21601 1.72397,-5.28399 1.72398,-5.28398 0.74529,-1 0.74529,-1 0.73442,-2.5 0.73441,-2.5 5.45503,-14 5.45503,-14 2.98573,-7.5 2.98573,-7.5 0.91566,-2 0.91567,-2 1.9031,-5 1.90311,-5 5.00656,-12 5.00656,-12 5.19993,-12.5 5.19993,-12.5 8.48351,-21.5 8.48351,-21.5 5.81948,-13.5 5.81948,-13.5 2.67159,-7 2.67158,-7 0.8802,-2 0.88021,-2 6.60927,-17 6.60927,-17 3.80968,-9 3.80967,-9 1.31583,-3.5 1.31583,-3.5 1.04216,-1.35521 1.04216,-1.35521 0.0784,-6.00585 0.0784,-6.00586 2.71173,-1.42082 2.71174,-1.42082 1.4342,-3.43253 1.43419,-3.43252 2.63912,-0.66237 2.63911,-0.66238 0.90033,0.90033 0.90033,0.90033 -4.49391,14.47646 -4.49391,14.47645 -2.56597,8.5 -2.56596,8.5 -1.82207,5.5 -1.82207,5.5 -3.214,10.5 -3.21399,10.5 -2.33889,7.5 -2.33888,7.5 -7.0938,23 -7.0938,23 -3.03225,10 -3.03225,10 -1.82107,5.5 -1.82107,5.5 L 252,790 l -3.1832,10.5 -1.82107,5.5 -1.82107,5.5 -3.03733,10 -3.03733,10 -9.57699,31 -9.57698,31 -3.05969,10 -3.05969,10 -1.75408,4.94692 -1.75407,4.94691 z M 743.58449,902 h -0.55166 l -8.37673,-12.75 -8.37673,-12.75 -8.97634,-14.5 -8.97634,-14.5 -12.31429,-20 -12.31429,-20 -27.99514,-45 -27.99513,-45 -4.35392,-6.71774 L 619,704.06452 v -0.5537 -0.5537 L 616.62048,699.22856 614.24095,695.5 602.37048,675.65419 590.5,655.80837 l -2,-3.2285 -2,-3.2285 L 575.56426,631.92568 564.62852,614.5 556.66105,601 548.69358,587.5 545.84679,583.31982 543,579.13965 v -1.40931 -1.40931 l 2.54705,-1.16051 L 548.09411,574 h 0.36526 0.36526 l 7.80342,10.75 7.80342,10.75 15.0911,20 15.09109,20 21.53182,28.5 21.53182,28.5 13.82905,19 13.82905,19 4.0823,5.19819 4.0823,5.19819 5.5,7.2421 5.5,7.24209 5.838,7.55971 5.83801,7.55972 11.27309,15 11.27308,15 23.80371,32.5 23.8037,32.5 3.43148,4.87671 3.43148,4.87672 -0.84628,1.76678 L 771.5,878.787 757.81807,890.3935 744.13615,902 Z M 159.72501,885.97168 159.5,885.94336 154.94702,881.72168 150.39404,877.5 142.69702,870.56792 135,863.63585 v -2.36517 -2.36517 l 6.13257,-11.70275 6.13256,-11.70276 4.22469,-8 4.22468,-8 12.52844,-24.5 12.52844,-24.5 10.96942,-21.5 10.96943,-21.5 8.75605,-16.5 8.75605,-16.5 1.765,-3 1.76499,-3 4.98965,-9.5 4.98965,-9.5 8.51515,-16.5 8.51515,-16.5 7.33604,-14 7.33604,-14 3.30074,-6.75 3.30074,-6.75 h 1.548 1.548 l 1.93426,1.03518 1.93426,1.03519 v 0.98112 0.98112 l -5.03026,12.2337 -5.03025,12.23369 -1.92262,4.5 -1.92261,4.5 L 262,640 l -3.09426,7.5 -1.92756,4.5 -1.92757,4.5 -6.08165,15 -6.08165,15 -2.53094,6 -2.53093,6 -1.33108,3 -1.33107,3 -1.9605,5 -1.96049,5 -3.61694,8.79561 -3.61693,8.79562 -2.00422,4.39952 L 220,740.89027 v 0.56576 0.56577 l -1.94646,4.2391 -1.94645,4.2391 -4.66677,11.5 -4.66676,11.5 -2.28802,5.5 -2.28803,5.5 -5.21751,12.5 -5.2175,12.5 -2.38125,5.75 L 187,821 l -2.38678,5.75 -2.38678,5.75 -4.66676,11.5 -4.66677,11.5 -1.94645,4.2391 L 169,863.9782 v 0.77571 0.77571 l -1.86003,3.48519 -1.86004,3.48519 -0.75912,2.5 -0.75912,2.5 -1.90584,4.25 -1.90584,4.25 z M 793.23714,857 h -1.07008 L 780.27619,842.25 768.38532,827.5 756.40365,812 l -11.98166,-15.5 -15.02298,-20 -15.02297,-20 -3.44338,-4.5 -3.44338,-4.5 -10.49464,-13.38345 -10.49464,-13.38346 -4,-5.18647 -4,-5.18647 L 657.55464,682.93007 636.60927,655.5 624.85332,640.39576 613.09737,625.29152 605.79868,616.22149 598.5,607.15145 592,598.88631 585.5,590.62117 575.25,577.10638 565,563.59158 V 561.29579 559 h 3.76382 3.76381 l 4.93246,5.25 4.93246,5.25 20.05372,21.04882 20.05373,21.04882 13.91931,15.45118 13.91931,15.45118 12.58069,13.37281 12.58069,13.37281 3.5,3.74523 3.5,3.74523 8.5,7.80589 8.5,7.80589 2.96894,4.07607 2.96895,4.07607 9.97487,11 9.97488,11 11.05618,11.95036 11.05618,11.95036 21,22.56356 21,22.56355 11,11.98608 11,11.98609 0.5,0.5 0.5,0.5 3.75,4.25288 3.75,4.25288 v 1.48076 1.48076 l -8.89213,10.26636 -8.89212,10.26636 -3.95427,4.25 -3.95426,4.25 z M 116,840.94189 l -0.5,-0.0163 -11.25,-13.563 -11.25,-13.563 v -1.68236 -1.68236 l 5.373385,-6.47364 5.373385,-6.47364 9.78622,-13.99379 9.78622,-13.99378 22.20068,-33.5 22.20068,-33.5 19.94812,-29 19.94812,-29 7.86473,-11.5 7.86474,-11.5 9.47529,-14 9.47529,-14 3.43674,-4.75 3.43674,-4.75 h 1.94621 1.94622 l 0.56294,1.467 0.56294,1.467 -4.9522,9.283 -4.9522,9.283 -7.74341,14.5 -7.74341,14.5 -4.50362,8.5 -4.50363,8.5 -13.76954,25 -13.76953,25 -9.81083,18 -9.81082,18 -5.65117,9.5 -5.65118,9.5 -9.013,16.5 -9.013,16.5 -10.38316,19.5 -10.38316,19.5 -3.01739,6.22911 -3.0174,6.2291 z M 684,839 h -1 v -1 -1 h 1 1 v 1 1 z m 154.97625,-36.69298 -0.69029,0.80702 -5.76104,-5.26526 -5.76104,-5.26527 -27.04773,-28.54175 -27.04774,-28.54176 -9.12594,-9.5 -9.12595,-9.5 -20.8799,-22 -20.87989,-22 -31.69668,-32 -31.69667,-32 -23.60509,-24.82422 -23.60508,-24.82423 -7.60861,-8.38073 -7.6086,-8.38072 0.34055,-1.79505 0.34055,-1.79505 2.67714,-0.31022 2.67714,-0.31021 11.31431,9.77814 11.31431,9.77814 2.5,2.19718 2.5,2.19718 29.5,25.27382 29.5,25.27382 16.5,14.62343 16.5,14.62344 37,30.87268 37,30.87268 15,13.15327 15,13.15328 22,18.32707 22,18.32707 0.31485,0.77918 0.31486,0.77917 -1.21631,2.30544 -1.2163,2.30544 -9.51528,14.5 -9.51528,14.5 z M 77.887052,791 H 77.046106 L 75.638308,788.75 74.23051,786.5 67.115255,774.36983 60,762.23966 v -0.99267 -0.99268 l 5.63553,-6.87716 5.635531,-6.87715 6.155582,-7 6.155582,-7 14.002843,-16 14.002842,-16 14.95605,-17.42659 14.95604,-17.4266 11.5334,-13.5734 11.5334,-13.57341 20.82374,-25 20.82373,-25 8.00314,-9.5 8.00314,-9.5 3.35209,-1.75458 3.35209,-1.75458 1.10138,2.05795 1.10138,2.05795 -2.51336,4.19663 -2.51337,4.19663 -10.0179,14.5 -10.0179,14.5 -5.44727,8 -5.44727,8 -6.89937,10 -6.89938,10 -4.47688,6.5 -4.47688,6.5 -7.95896,11.37655 -7.95895,11.37654 -5,7.18901 -5,7.18901 -8.5,12.23022 -8.5,12.23021 -10.4051,14.70423 L 108.68979,747.5 96.581832,765 84.473874,782.5 81.600936,786.75 78.727998,791 Z M 48.956389,739.36712 48.165762,740.23424 45.582881,734.58748 43,728.94073 v -0.53444 -0.53444 l -2.61594,-5.68593 -2.61594,-5.68592 -0.511196,-3.71621 -0.511197,-3.7162 7.377137,-7.12057 7.377136,-7.12057 14,-13.22495 14,-13.22496 19.5,-18.07939 19.5,-18.07938 5.5,-5.71607 5.5,-5.71606 25.5,-23.79475 25.5,-23.79476 11.48369,-11.59806 L 203.46738,550 H 206.23369 209 v 2.95107 2.95107 l -11.26172,12.79893 -11.26171,12.79893 -10.30802,12 -10.30802,12 -4.68027,5.476 -4.68026,5.47599 -11.00529,12.02401 -11.00528,12.024 -17.9244,21 -17.924386,21 -5.03995,6 -5.03995,6 -13.071863,14.5 -13.071864,14.5 -6.335001,7.5 -6.335,7.5 z M 874.5,739.61698 l -1,0.25198 L 854,723.86025 834.5,707.85154 819.08619,695.17577 803.67239,682.5 793.08619,673.54253 782.5,664.58507 767,650.99863 l -15.5,-13.58645 -19,-15.91437 -19,-15.91437 -10.06286,-8.54172 L 693.37428,588.5 681.0078,578 l -12.36647,-10.5 -3.19316,-2.5 -3.19316,-2.5 -23.32267,-19 -23.32268,-19 -3.9698,-3.59892 -3.96979,-3.59891 0.63358,-1.65109 L 608.93723,514 h 3.15021 3.1502 l 14.54575,10.25 14.54574,10.25 7.58543,5.31369 7.58544,5.31369 11.5,7.99038 11.5,7.99037 13.19895,9.19594 13.19894,9.19593 18.80106,12.65594 18.80105,12.65593 15.5,11.0618 15.5,11.0618 12,8.81798 12,8.81798 11,7.91524 11,7.91523 12.5,8.41075 12.5,8.41075 20.25,14.09297 20.25,14.09298 v 3.09293 3.09292 l -5.00002,10.4524 -5.00003,10.4524 -1.74997,3.4325 -1.74998,3.43251 z M 27.026403,687 H 25.93723 l -0.43515,-1.25 -0.435151,-1.25 -3.095379,-9.79671 -3.09538,-9.79671 0.311915,-2.65198 0.311915,-2.65198 5.058072,-4.05131 5.058072,-4.05131 22.309742,-18 22.309741,-18 26.253463,-21 26.25346,-21 15.3115,-12 15.31151,-12 12.97933,-10.75 12.97934,-10.75 h 1.71544 1.71544 l 1.3165,1.58628 1.31649,1.58628 -9.94405,9.6358 -9.94405,9.6358 -15,14.50777 -15,14.50776 -14.50866,14.02016 L 110.48268,607.5 97.491339,619.97393 84.5,632.44787 l -13,12.5357 -13,12.53571 L 43.307788,672.25964 28.115576,687 Z M 900.32284,678.63373 899.5,680.76746 878,666.2827 856.5,651.79793 813,622.56175 l -43.5,-29.23619 -17,-11.49146 -17,-11.49146 -41,-27.54962 -41,-27.54962 L 638.25,504.9589 623,494.67439 V 493.8372 493 l 2.05115,-2.05115 2.05115,-2.05115 2.19885,0.65933 2.19885,0.65933 10.5,6.02738 10.5,6.02738 10,5.7174 10,5.7174 28,15.52034 28,15.52034 9,4.77 9,4.77 20,10.99479 20,10.99479 29,16.22672 29,16.22672 15,7.77741 15,7.77741 10,5.47512 10,5.47512 6.68446,3.8885 6.68447,3.88849 0.6041,1.90336 0.60411,1.90337 -3.96573,14.8408 -3.96572,14.8408 z m -887.074713,-44.25535 -1.251872,0.74197 -0.8761,-2.31018 L 10.244055,630.5 8.5816275,619.88572 6.9191996,609.27144 8.0080725,606.88163 9.0969454,604.49181 30.565307,590.99591 52.033669,577.5 l 29.842952,-18 29.842949,-18 14.79118,-10 14.79118,-10 2.64864,-2.62653 2.64865,-2.62653 3.07273,-0.67489 3.07274,-0.67488 7.82266,-4.9397 7.82267,-4.9397 2.31823,2.17787 2.31824,2.17787 -0.76325,0.66206 -0.76324,0.66206 -25.5,19.94591 -25.5,19.9459 -29.812628,23.45528 -29.812628,23.45528 -2.734779,2 -2.734778,2 L 34.952593,617.5682 14.5,633.6364 Z m 900.976193,-17.45733 -0.72432,-0.0789 -1.5,-0.56258 -1.5,-0.56257 -23,-12.7009 -23,-12.70089 -17,-8.79235 -17,-8.79235 -12.5,-6.5255 -12.5,-6.52549 -8.5,-4.69868 -8.5,-4.69868 -12,-6.49538 -12,-6.49537 -5.5,-3.00387 -5.5,-3.00387 -22.5,-12.47489 -22.5,-12.47489 -18.88514,-9.76925 -18.88514,-9.76925 -10.03967,-6.03001 -10.03966,-6.03001 -5.19051,-2.29549 -5.19051,-2.29549 -0.63469,-1.65396 L 639,466.83643 V 465.91821 465 h 3.44393 3.44394 l 8.80606,3.61144 8.80607,3.61144 5.75,2.38856 L 675,477 l 6,2.5 6,2.5 5.75,2.38562 5.75,2.38563 5,2.17899 5,2.179 2,0.891 2,0.89101 14,6.11827 14,6.11828 11,4.78388 11,4.78388 6.5,2.7709 6.5,2.77091 4.19514,1.87131 4.19513,1.87132 h 0.56576 0.56577 l 4.2391,1.91084 4.2391,1.91084 9,3.73003 9,3.73004 10,4.25637 10,4.25636 12.5,5.21916 12.5,5.21916 5,2.2658 5,2.26581 7.5,3.16684 7.5,3.16685 4,1.85917 4,1.85917 14.5,6.1901 14.5,6.1901 0.78136,0.73303 0.78135,0.73304 -1.15671,14.41865 -1.15671,14.41864 -1.40032,2.75 -1.40033,2.75 z m -510.47171,-19.89473 -10.74738,3.85197 -0.86918,-1.68915 -0.86919,-1.68914 -4.77673,-14 -4.77673,-14 -0.71671,-1 -0.71672,-1 -2.25805,-6.5 -2.25804,-6.5 -1.82932,-5 -1.82932,-5 -3.59769,-9.5 -3.59769,-9.5 -6.37753,-17.5 -6.37754,-17.5 -3.16496,-8.5 -3.16497,-8.5 -1.93148,-5.5 -1.93147,-5.5 -1.48096,-3.15113 L 339,456.19774 v -0.67831 -0.67832 l -2.61844,-6.67055 -2.61844,-6.67056 -2.39744,-6.24365 -2.39744,-6.24364 -2.5,-6.5 -2.5,-6.5 -2.5,-6.5 -2.5,-6.5 -2.40026,-6.25636 -2.40025,-6.25635 -3.74462,-10 -3.74462,-10 -3.38397,-9 -3.38396,-9 -3.97069,-11 -3.97069,-11 -0.85524,-2 -0.85524,-2 -4.32465,-9 -4.32464,-9 -7.05471,-7.09409 -7.0547,-7.0941 -9.5,-4.65246 -9.5,-4.65245 -9.69816,-1.67547 -9.69815,-1.67547 -10.80185,1.74444 -10.80184,1.74444 -18,6.0632 -18,6.0632 -1,0.73206 -1,0.73206 -5.5,1.76464 -5.5,1.76464 -1,0.73735 -1,0.73736 -4,1.25632 -4,1.25631 -4.5,2.03651 -4.5,2.03651 -3.93827,0.0875 -3.93827,0.0875 -3.383,-8 -3.383,-8 -1.43572,-4 -1.43571,-4 -0.98482,-2 -0.98482,-2 -4.47318,-12.5 -4.47317,-12.5 -5.94437,-16.19905 -5.94438,-16.19906 -0.624546,-2.84354 -0.624547,-2.84354 3.783903,-1.65082 3.7839,-1.65082 7,-2.60524 7,-2.60523 24,-8.55584 24,-8.55584 12.5,-4.32569 12.5,-4.32569 10,-3.03066 10,-3.03065 6.5,-1.03161 6.5,-1.03161 6,0.01 6,0.01 6.51813,1.38189 6.51813,1.3819 9.81474,3.2545 9.81473,3.25451 5.66714,3.6661 5.66713,3.66611 4.87847,5.43013 4.87846,5.43013 3.50448,5.47725 3.50448,5.47724 1.93997,4.52276 1.93998,4.52275 8.4887,24 8.48871,24 13.38913,37.5 13.38914,37.5 6.11261,16.5 6.11262,16.5 4.04573,11 4.04574,11 2.74958,7.5 2.74959,7.5 4.6495,13 4.6495,13 0.97639,2 0.9764,2 3.91273,11 3.91272,11 5.70114,14.5 5.70114,14.5 7.54382,21 7.54381,21 1.85824,5.5 1.85823,5.5 0.982,2 0.98201,2 5.07669,14 5.07669,14 0.1908,1.36649 0.1908,1.36649 -9.5,3.47068 -9.5,3.47068 z m 48.01771,-16.0332 -1.72967,0.007 -2.02,-3.95953 -2.02001,-3.95953 -6.59203,-18.79047 -6.59204,-18.79047 -1.81008,-5 -1.81009,-5 -5.74063,-16.5 -5.74063,-16.5 -1.33893,-3 -1.33893,-3 -1.87048,-5.5 -1.87047,-5.5 -9.79588,-27 -9.79588,-27 -2.72591,-7.5 -2.72592,-7.5 -7.76963,-21.5 -7.76962,-21.5 -2.27856,-6.5 -2.27856,-6.5 -3.16752,-8.5 -3.16751,-8.5 -1.34675,-4 -1.34674,-4 -2.93722,-8 -2.93721,-8 -6.62671,-18.4296 L 338,272.64079 l -0.006,-1.07039 -0.006,-1.0704 -1.40803,-2.6989 -1.40802,-2.6989 -1.68034,-5.8011 -1.68033,-5.8011 -0.80345,-1 -0.80345,-1 -1.55306,-5 -1.55306,-5 -2.61387,-7 -2.61388,-7 -4.26075,-9 -4.26075,-9 -7.42435,-13 -7.42434,-13 -1.5,-2.95506 -1.5,-2.95506 -5.78079,-6.20529 -5.78079,-6.20529 L 269.21921,154.07377 254.5,142.96824 241.3273,136.48412 228.1546,130 h -0.63216 -0.63217 l -4.33804,-1.97621 -4.33804,-1.9762 -8.85709,-1.59005 -8.8571,-1.59005 -9,-1.41581 -9,-1.41581 -11.05887,-0.0179 -11.05887,-0.0179 -1.71396,-1.25328 -1.71397,-1.25328 -0.58311,-3.5933 -0.58311,-3.59331 4.35594,-1.50537 4.35595,-1.50538 35.5,-12.800513 35.5,-12.800512 7.5,-2.697582 7.5,-2.697583 41,-14.804219 41,-14.804218 6.5,-2.276383 6.5,-2.276384 8.5,-3.121029 8.5,-3.12103 4.5,-1.447004 4.5,-1.447004 2,-0.986388 2,-0.986387 21.34354,-7.588047 21.34354,-7.588047 0.18612,0.323125 0.18611,0.323125 1.94426,4 1.94425,4 0.33085,0.664283 0.33085,0.664283 -4.70501,3.237132 -4.70501,3.237132 -6.90705,5.944715 -6.90705,5.944715 -5.53582,6.65387 -5.53582,6.65387 -4.02891,6 -4.02892,6 -4.74208,9 -4.74208,9 -3.72866,9.5 -3.72866,9.5 -1.88204,5 -1.88205,5 -2.73824,10 -2.73823,10 0.008,23 0.008,23 2.73353,11 2.73353,11 3.84407,11 3.84407,11 4.48756,12.61947 4.48756,12.61947 0.51723,0.88053 0.51722,0.88053 1.71698,6 1.71699,6 0.7655,1 0.76549,1 2.08095,6 2.08095,6 2.68837,7 2.68837,7 2.42677,6.5 2.42677,6.5 2.35998,7 2.35998,7 5.1521,14.5 5.1521,14.5 2.301,7 2.301,7 7.14062,20 7.14063,20 0.98935,2 0.98936,2 1.92971,5.5 1.9297,5.5 2.67998,7 2.67998,7 9.43511,28 9.4351,28 0.94906,2 0.94906,2 1.44316,4 1.44316,4 3.16824,7.5 3.16824,7.5 8.30065,24.5 8.30064,24.5 0.34494,1.84363 0.34494,1.84364 -18,6.39949 -18,6.39948 z M 5.587272,578.60488 4.1533844,579.15512 3.0766922,577.1433 2,575.13148 v -9.34323 -9.34324 l 1.5760358,-2.2501 1.5760358,-2.25011 12.1739644,-5.86044 12.173964,-5.86045 17.799657,-8.60363 17.799656,-8.60364 9.200344,-4.39889 9.200343,-4.3989 11.5,-5.5938 11.5,-5.59381 13.04353,-6.76562 13.04352,-6.76562 10.09163,-4.76268 10.09164,-4.76269 1.53752,0.59 1.53752,0.59001 0.52455,1.36694 0.52454,1.36694 -16.69722,10.6352 -16.69723,10.63521 -21,13.26948 -21,13.26948 -27,16.80399 -27,16.80398 -10.23942,6.37439 -10.2394204,6.3744 z M 510.00538,561 h -1.05488 l -0.85514,-2.25 -0.85513,-2.25 -8.25055,-23 -8.25055,-23 -2.23187,-6 -2.23187,-6 -5.21488,-14.5 -5.21489,-14.5 -4.45259,-13.5 -4.45258,-13.5 -0.87083,-2 -0.87084,-2 -7.22105,-20.5 -7.22105,-20.5 -2.94711,-8 -2.94711,-8 -1.98151,-5.5 -1.98151,-5.5 -2.50013,-7 -2.50014,-7 -2.35289,-7 -2.35289,-7 -4.59356,-13 -4.59357,-13 -1.00262,-2 -1.00263,-2 -1.86367,-5.5 -1.86366,-5.5 -5.08883,-14 -5.08883,-14 -5.10845,-13.5 -5.10845,-13.5 -2.37912,-6.5 -2.37912,-6.5 -5.16192,-13.5 -5.16193,-13.5 -2.511,-8 -2.511,-8 -0.99217,-5 -0.99217,-5 0.49435,-10.5 0.49435,-10.5 2.43878,-6.00192 2.43877,-6.00192 6.42153,-10.10233 6.42153,-10.10232 3.10728,-3.518 3.10727,-3.51799 5.54662,-4.51779 5.54662,-4.51778 6.3461,-3.03674 6.34611,-3.03675 5,-2.14536 5,-2.14537 9,-3.500063 9,-3.500061 10.5,-4.065459 10.5,-4.06546 6,-2.304101 6,-2.304101 14,-5.100729 14,-5.100728 10.31023,-3.372367 10.31024,-3.372366 0.89538,2.164852 0.89538,2.164853 2.44721,6.5 2.44721,6.5 1.2275,4 1.2275,4 0.77515,1 0.77516,1 1.73465,5.987962 1.73466,5.987958 0.87993,1.51204 0.87994,1.51204 2.01388,6 2.01389,6 5.9934,18 5.99339,18 -0.27735,2 -0.27735,2 -7.5,2.54112 -7.5,2.54112 -12.5,4.26582 -12.5,4.26583 -2,0.90974 -2,0.90975 -11.5,4.15258 -11.5,4.15257 -7.73981,3.84167 -7.73981,3.84166 -5.26019,3.93562 -5.26019,3.93562 -4.63632,4.85345 -4.63632,4.85345 -2.62028,4.24058 -2.62028,4.24059 -2.98515,7.51467 -2.98514,7.51467 -1.09653,7.06727 -1.09652,7.06726 1.04754,7.67748 1.04755,7.67748 3.4609,10.5 3.46091,10.5 5.1693,14.5 5.1693,14.5 7.47396,21.5 7.47396,21.5 4.86748,14.5 4.86749,14.5 4.6443,13.5 4.6443,13.5 1.33485,3 1.33485,3 1.1877,4.5 1.1877,4.5 0.8077,1 0.80771,1 1.71524,6 1.71524,6 0.70898,1 0.70899,1 6.26417,18 6.26416,18 1.8056,5 1.8056,5 5.22963,15 5.22964,15 3.00682,8 3.00681,8 2.4702,6.43582 2.4702,6.43582 -1.61557,1.18133 -1.61557,1.18134 -12.24055,4.27183 -12.24055,4.27183 -5.71987,2.36101 L 511.06026,561 Z m 412.24462,-7.06768 -0.75,-0.0677 -2,-0.88745 -2,-0.88744 -30.5,-12.15111 -30.5,-12.1511 -11,-4.3939 -11,-4.39391 -2,-0.99288 -2,-0.99288 -4,-1.44316 -4,-1.44316 -7,-2.96209 -7,-2.96208 -7.5,-3.13574 -7.5,-3.13573 -29,-11.51455 -29,-11.51455 -2,-0.89595 -2,-0.89595 -17.5,-6.93863 -17.5,-6.93863 -18,-7.22994 -18,-7.22994 -4.62521,-2.34054 -4.62521,-2.34055 -0.62479,-1.62818 L 650,440.83643 V 439.41821 438 h 2.51266 2.51266 l 7.23734,2.0845 7.23734,2.0845 8.5,2.52828 8.5,2.52828 8.5,2.37506 8.5,2.37507 2.5,0.93371 2.5,0.93372 10.5,3.04707 10.5,3.04708 12,3.62579 12,3.62579 8,2.45052 8,2.45051 7,1.97865 7,1.97865 2,0.92248 2,0.92248 7,2.0017 7,2.0017 8.24214,2.57928 8.24213,2.57928 8.25787,2.57652 8.25786,2.57652 8,2.45294 8,2.45295 8,2.35321 8,2.35322 14,4.16681 14,4.16682 12.53873,3.93627 12.53873,3.93627 1.71127,1.99861 L 923,522.02286 V 538.01143 554 Z M 3.0957079,525 H 2 v -8.80887 -8.80887 l 1.25,-1.69818 1.25,-1.69817 22.5,-8.14102 22.5,-8.14101 9.5,-3.38471 9.5,-3.3847 3.5,-1.06254 3.5,-1.06255 3,-1.28334 3,-1.28334 28.81961,-10.18127 28.81962,-10.18127 1.68038,0.32362 1.68039,0.32361 v 1.20192 1.20192 l -4.5,2.81098 -4.5,2.81098 -13,6.62845 -13,6.62844 -38,17.17694 -38,17.17693 -4,1.83359 -4,1.83359 -7,3.12385 -7,3.12384 -2.6542921,1.46059 L 4.1914159,525 Z M 919.19188,490.14194 918.5,490.78388 l -4.5,-1.39633 -4.5,-1.39632 -9,-2.54769 -9,-2.54769 -8.5,-2.40805 -8.5,-2.40805 -9,-2.62094 -9,-2.62093 -8.5,-2.35188 -8.5,-2.35188 -8.5,-2.4452 -8.5,-2.44519 -9,-2.5265 -9,-2.52651 -19.15727,-5.54813 -19.15726,-5.54814 -7.34274,-1.99975 -7.34273,-1.99976 -7.5,-2.10165 -7.5,-2.10166 -2,-0.91389 -2,-0.91389 -7.5,-1.96106 -7.5,-1.96106 -10.5,-3.1582 -10.5,-3.1582 -8,-2.37065 -8,-2.37065 -11.27336,-3.211 -11.27336,-3.211 -0.59674,-2.37759 -0.59673,-2.37758 0.65158,-0.65158 0.65158,-0.65158 6.71851,1.19974 6.71852,1.19975 13.5,2.46835 13.5,2.46835 13.5,2.55835 13.5,2.55834 13,2.4869 13,2.4869 12.5,2.5521 12.5,2.5521 13,2.47946 13,2.47946 13.5,2.43114 13.5,2.43114 13,2.46031 13,2.46031 14.5,3.12063 14.5,3.12064 11,1.98624 11,1.98625 3.20713,0.5788 3.20712,0.57881 1.3686,1.62612 1.36859,1.62611 1.20135,6.5 1.20136,6.5 0.91481,7.5 0.91481,7.5 z M 5.75,476.98918 5,477 v -4.77216 -4.77215 l 3.0621457,-3.71492 3.0621453,-3.71491 8.687855,-2.59205 8.687854,-2.59205 8,-2.34112 8,-2.34112 11,-3.18678 11,-3.18678 8.5,-2.46657 8.5,-2.46657 6,-1.86714 6,-1.86714 3.684631,-0.6583 3.684629,-0.6583 1.72036,-1.90097 1.72036,-1.90097 1.59501,4e-5 1.59501,4e-5 10.76396,-2.70037 10.76395,-2.70037 1.68943,1.68943 1.68944,1.68943 -1.95339,2.61242 -1.95339,2.61242 -25.5,8.98023 -25.5,8.98023 -3.5,1.32083 -3.5,1.32082 -19,6.74508 -19,6.74508 -9.5,3.40529 -9.5,3.4053 -4.5,1.43623 -4.5,1.43622 z m 13,-46.42246 -3.75,0.65586 v -4.16095 -4.16095 l 1.570999,-3.03798 1.570999,-3.03797 4.383095,-1.93885 4.383096,-1.93886 10.545905,-1.47351 L 48,410 l 10.75,-1.54068 10.75,-1.54068 17.5,-2.44076 17.5,-2.44076 6.5,-0.99845 6.5,-0.99846 4.64301,-0.0201 4.64301,-0.0201 0.58728,1.53042 0.58728,1.53042 -2.23029,0.88634 -2.23029,0.88634 -44,10.69516 -44,10.69515 -6.5,1.84352 -6.5,1.84351 z m 890.08201,-1.77409 -0.33201,0.78468 -4,-0.78022 -4,-0.78022 -14.75,-2.50844 L 871,423 l -15.25,-2.58155 -15.25,-2.58156 -14.5,-2.45718 -14.5,-2.45718 -15,-2.5021 -15,-2.5021 -12,-1.92506 -12,-1.92506 -2.5,-0.63664 -2.5,-0.63665 -15,-2.43974 -15,-2.43974 -14,-2.36418 -14,-2.36418 -15.37276,-2.51631 -15.37277,-2.5163 -0.9619,-0.9619 -0.9619,-0.9619 0.33467,-2.36533 L 662.5,381.5 l 3,0.13483 3,0.13484 31,2.08814 31,2.08813 9.5,1.08212 9.5,1.08211 28.5,1.93648 28.5,1.93647 12,1.47725 12,1.47724 17,1.06792 17,1.06792 17.81845,1.26502 17.81846,1.26502 0.91647,1.44825 0.91647,1.44826 1.5298,5.5 1.52979,5.5 2.06729,7.25397 2.06729,7.25397 z M 32.75,386.93122 27,387 v -2.48422 -2.48423 L 29.917074,378.76578 32.834147,375.5 77.417074,375.2017 122,374.90339 v 0.92586 0.92586 l -1.27041,1.05435 -1.27042,1.05435 -21.479583,2.16144 -21.479587,2.16144 -19,1.83787 -19,1.83787 z m 858.40404,-12.64209 -0.65404,0.28855 -8.5,-0.69057 -8.5,-0.69058 -21.5,-1.54266 -21.5,-1.54266 -14,-0.59945 -14,-0.59946 -10,-0.93588 -10,-0.93587 -28.80992,-1.55663 -28.80993,-1.55662 -13.69007,-1.48023 L 697.5,360.96684 680.75,360.32733 664,359.68782 v -2.40965 -2.40965 l 1.02231,-1.91021 1.02231,-1.9102 76.22769,-0.0171 76.22769,-0.0172 30.76602,-0.66617 30.76602,-0.66618 2.43211,2.28485 2.4321,2.28484 0.67903,3.0916 0.67903,3.09159 0.8611,1.53283 0.8611,1.53282 1.91578,5.25029 1.91578,5.25029 z M 79.396039,351 H 40.102053 l 1.548559,-3.75 1.548559,-3.75 1.555402,-1.75 1.555402,-1.75 6.095013,0.0514 6.095012,0.0514 7,0.91239 7,0.91239 24.475636,2.09523 24.475634,2.09523 0.4349,0.4349 0.4349,0.4349 -1.81552,2.00613 L 118.69002,351 Z m 617.061371,-22.27868 -31.04259,0.48344 -1.31928,-1.58965 -1.31929,-1.58964 0.58625,-1.52774 0.58625,-1.52775 2.27562,-0.85456 2.27563,-0.85456 12,-1.17748 12,-1.17747 5.5,-1.00315 5.5,-1.00315 20,-2.4831 20,-2.48311 17.5,-1.91193 17.5,-1.91192 5,-1.05858 5,-1.05857 17.5,-2.07562 17.5,-2.07561 12,-1.41618 12,-1.41617 3.52992,-0.58812 3.52993,-0.58813 2.47007,2.47922 2.47008,2.47921 4.94579,10.07538 4.94578,10.07538 -0.5474,0.5474 -0.5474,0.5474 -49.89838,0.99323 -49.89839,0.99323 -20.5,1.10743 -20.5,1.10743 z M 115,320.65047 l -7.5,0.15047 -14.5,-1.40891 -14.5,-1.40891 -9.757721,-0.83261 -9.75772,-0.83262 -0.407769,-0.40894 -0.407768,-0.40895 1.352564,-3.21515 1.352564,-3.21516 2.782801,-0.69844 2.782802,-0.69844 16.530124,2.26292 16.530123,2.26291 10.5,1.43212 10.5,1.43212 1.32014,0.46409 1.32013,0.46409 -0.32013,2.25447 L 122.5,320.5 Z m 553.5,-24.26695 -7,0.59594 -1.82303,-1.08029 -1.82303,-1.08029 1.71032,-1.88988 1.71032,-1.88988 3.61271,-0.62075 3.61271,-0.62075 7.77742,-1.9271 7.77742,-1.9271 9.22258,-1.96012 9.22258,-1.96012 10.5,-2.40978 10.5,-2.40979 11.5,-2.70965 11.5,-2.70964 11.5,-2.41876 11.5,-2.41875 12,-2.55287 12,-2.55287 12,-2.41484 12,-2.41483 4.24618,-0.6411 4.24618,-0.6411 4.25382,4.46726 4.25382,4.46727 2.18957,3.64646 2.18957,3.64647 -0.75967,0.46951 -0.75968,0.4695 -9.92989,1.58618 -9.9299,1.58617 -11.5,1.928 -11.5,1.928 -21.5,2.58316 -21.5,2.58316 -10.5,1.48461 -10.5,1.48461 -16,2.46562 -16,2.46562 -11.5,1.39839 -11.5,1.39839 z m -13.70813,-22.87447 -1.70813,0.67279 -0.64972,-2.58868 -0.64971,-2.58869 0.49767,-1.29692 0.49767,-1.29691 13.86018,-4.67695 13.86017,-4.67694 14.5,-5.1304 14.5,-5.1304 14,-4.8127 14,-4.81271 14.5,-5.1092 14.5,-5.10919 13.41574,-4.55108 13.41573,-4.55108 6.55464,6.55463 6.55463,6.55464 -0.97037,0.94927 -0.97037,0.94927 -9.5,2.49249 -9.5,2.4925 -11.5,3.16834 -11.5,3.16835 -5,1.29984 -5,1.29983 -11.5,3.19266 -11.5,3.19266 -9,2.36879 -9,2.3688 -9,2.48175 -9,2.48176 -9.5,2.63307 -9.5,2.63307 -9,2.35228 -9,2.35227 z m -9.83987,-30.07394 -1.54799,0.62384 -2.33008,-2.48025 -2.33007,-2.48025 4.37807,-2.00902 4.37807,-2.00903 14,-6.09064 14,-6.09063 3,-1.39677 3,-1.39677 5.68807,-2.55279 5.68808,-2.5528 h 0.62385 0.62385 l 5.18808,-2.38131 5.18807,-2.38131 11.5,-5.03366 11.5,-5.03366 13.76671,-6.08503 L 755.03343,188 h 3.03294 3.03295 l 2.70034,1.41468 2.70034,1.41468 3.43165,3.57034 3.43164,3.57034 -0.43164,0.33799 -0.43165,0.33799 -16.5,5.72322 -16.5,5.72322 -5,1.93937 -5,1.93936 -5.5,1.61968 -5.5,1.61968 -0.88856,0.53938 -0.88855,0.53937 -14.11145,4.94629 -14.11144,4.94629 -21,7.3147 -21,7.31469 z M 632.25126,219 H 630.4 l -1.2,-1.2 -1.2,-1.2 v -1.10857 -1.10858 l 14.25,-8.53908 14.25,-8.53908 17,-10.31248 17,-10.31249 9,-5.15693 9,-5.15693 6.83349,-3.77856 6.83348,-3.77856 3.23043,0.60603 3.23043,0.60604 3.43609,3.55952 3.43608,3.55951 -1.87959,1.38508 -1.87959,1.38509 -35.12041,17.9121 -35.12041,17.9121 -13.69874,6.6329 L 634.10252,219 Z m -15.8524,-24.32282 -1.24548,0.47794 -1.07669,-2.01182 L 613,191.13148 v -0.87287 -0.87287 l 6.75,-4.92162 6.75,-4.92162 27.49339,-20.52125 27.49339,-20.52125 2.00661,-1.1444 2.00661,-1.14439 5.25,1.96428 5.25,1.96428 -0.0548,1.68012 -0.0548,1.68011 -10.19515,6.47553 -10.19515,6.47553 -17,11.09895 -17,11.09895 -11.92783,7.77514 -11.92783,7.77515 z M 598.47377,172 h -1.22888 l -1.15203,-1.38811 -1.15203,-1.38812 2.49616,-2.96652 2.49617,-2.96653 16.25332,-14.39536 16.25333,-14.39536 8.09836,-7.75 8.09837,-7.75 3.43173,0.0136 3.43173,0.0137 2.25,0.60298 2.25,0.60297 v 1.93112 1.93112 l -2.54579,2.35936 -2.5458,2.35936 -24.02267,18.84289 -24.02267,18.84289 -3.58021,2.75 -3.58021,2.75 z m -20.40748,-20 h -0.99592 l -1.12383,-2.09989 -1.12382,-2.09988 2.33864,-3.2838 2.33864,-3.28379 17,-18.23889 17,-18.2389 1.99078,-0.73856 1.99077,-0.73857 2.94177,0.84369 2.94178,0.84369 0.89704,0.89704 0.89704,0.89704 -9.82959,9.3477 -9.82959,9.34771 -13.21889,13.2727 L 579.06222,152 Z"
       id="path5" />
  </g>
</svg>
